# xmcd
#
# Track frame offsets:
#  150
#  12597
#  34728
#  56361
#  75308
#  93305
#  112023
#  129947
#  148926
#  166552
#  186013
#  203551
#  220621
#
# Disc length: 3146 seconds
#
# Revision: 1
# Processed by: cddbd v1.5.1PL2 Copyright (c) Steve Scherf et al.
# Submitted via: Collectorz.com_Music_Collector 6.9
#
DISCID=a10c480d
DTITLE=JIMMY BARNES - Double Happiness - Disc 1
DYEAR=2005
DGENRE=AUSSIE ALTERNATIVE - AUSSIE ROCK
TTITLE0=Sit On My Knee - Jimmy Barnes with Dallas Crane
TTITLE1=Gonna Take Some Time - Jimmy Barnes with Mahalia Barnes
TTITLE2=Attention - Jimmy Barnes with Roachford
TTITLE3=Run - Jimmy Barnes with Mica Paris
TTITLE4=What  Will They Say - Jimmy Barnes with John Swan
TTITLE5=Out Of Time - Jimmy Barnes with Tim Rogers
TTITLE6=Got You As A Friend - Jimmy Barnes with Mark Lizotte (Diesel)
TTITLE7=Simply The Best - Jimmy Barnes with Tina Turner
TTITLE8=Resurrection Shuffle - Jimmy Barnes with The Living End
TTITLE9=Piece Of My Heart - Jimmy Barnes with Tina Harrod
TTITLE10=Good Times - Jimmy Barnes with INXS
TTITLE11=Shout - Jimmy Barnes with Billy Thorpe
TTITLE12=Wichita Lineman - Jimmy Barnes with DAVID Campbell
EXTD=
EXTT0=
EXTT1=
EXTT2=
EXTT3=
EXTT4=
EXTT5=
EXTT6=
EXTT7=
EXTT8=
EXTT9=
EXTT10=
EXTT11=
EXTT12=
PLAYORDER=
